<?xml version="1.0" encoding="UTF-8" standalone="no"?><!-- Generator: Gravit.io --><svg xmlns="http://www.w3.org/2000/svg" xmlns:xlink="http://www.w3.org/1999/xlink" style="isolation:isolate" viewBox="0 0 500 500" width="500pt" height="500pt"><defs><clipPath id="_clipPath_6vDeMU5MaoiKhYVa6wp7IpSHTwKGkzDc"><rect width="500" height="500"/></clipPath></defs><g clip-path="url(#_clipPath_6vDeMU5MaoiKhYVa6wp7IpSHTwKGkzDc)"><g><g filter="url(#ymvyRQPboDn3yZISsSvyYwb8LPGgHUAK)"><path d=" M 247.831 295.691 C 247.579 295.439 247.389 295.249 247.2 294.934 C 246.947 294.681 246.695 294.555 246.442 294.302 L 240.907 270.447 L 228.278 257.818 L 204.262 252.121 L 178.751 252.374 L 167.827 241.45 C 164.354 244.923 158.671 240.997 155.198 237.524 C 144.653 226.979 123.552 226.979 113.007 237.524 C 107.162 243.381 104.314 251.587 105.273 259.805 C 106.233 268.023 110.895 279.278 117.932 283.631 C 120.584 285.272 122.226 288.177 122.226 291.334 C 122.226 294.492 120.521 297.333 117.806 298.912 C 115.848 300.111 114.017 301.437 112.375 303.079 C 101.83 313.624 101.83 330.8 112.375 341.345 C 118.753 347.723 127.846 354.427 136.686 352.659 C 139.654 352.09 142.622 356.963 144.705 359.047 C 146.789 361.131 147.736 364.099 147.168 367.066 C 145.463 375.97 152.167 381.137 158.482 387.451 C 169.027 397.997 186.202 397.997 196.747 387.451 C 198.389 385.81 199.841 383.978 200.915 382.021 C 202.494 379.306 205.398 377.664 208.492 377.601 C 211.65 377.601 214.491 379.179 216.196 381.895 C 220.548 388.931 227.878 393.594 236.096 394.553 C 244.314 395.513 255.137 392.665 260.994 386.82 C 271.539 376.275 271.539 355.174 260.994 344.628 C 257.521 341.156 254.904 335.472 258.377 332 L 247.579 321.202 L 247.831 295.691 Z " fill="rgb(24,71,180)"/><path d=" M 250.231 171.296 L 182.477 153.237 L 155.261 186.198 L 208.492 239.492 Q 236.844 189.861 250.231 171.296 Z  M 300.684 228.884 C 282.119 242.397 272.647 284.452 258.44 290.198 L 316.028 351.259 L 346.716 318.865 L 336.992 249.027 C 336.866 249.027 325.541 228.821 325.352 228.884 L 300.684 228.884 Z  M 400.01 100.069 C 346.337 101.332 281.361 131.831 246.442 180.01 C 231.603 200.532 220.427 233.683 216.196 244.86 L 233.056 261.846 L 237.791 261.846 L 247.831 283.694 C 259.071 279.4 301.062 267.276 321.521 252.374 C 369.827 217.455 398.747 166.56 400.01 112.887 L 400.01 100.069 Z  M 321.521 180.01 C 309.587 168.076 304.093 161.866 316.028 149.932 C 327.962 137.997 341.159 134.104 353.094 146.038 C 365.028 157.973 365.028 168.076 353.094 180.01 C 341.159 191.945 333.456 191.945 321.521 180.01 Z " fill="rgb(18,53,135)"/></g><defs><filter id="ymvyRQPboDn3yZISsSvyYwb8LPGgHUAK" x="-200%" y="-200%" width="400%" height="400%" filterUnits="objectBoundingBox" color-interpolation-filters="sRGB"><feGaussianBlur xmlns="http://www.w3.org/2000/svg" stdDeviation="39.93056428440296"/></filter></defs><g><path d=" M 247.831 295.691 C 247.579 295.439 247.389 295.249 247.2 294.934 C 246.947 294.681 246.695 294.555 246.442 294.302 L 240.907 270.447 L 228.278 257.818 L 204.262 252.121 L 178.751 252.374 L 167.827 241.45 C 164.354 244.923 158.671 240.997 155.198 237.524 C 144.653 226.979 123.552 226.979 113.007 237.524 C 107.162 243.381 104.314 251.587 105.273 259.805 C 106.233 268.023 110.895 279.278 117.932 283.631 C 120.584 285.272 122.226 288.177 122.226 291.334 C 122.226 294.492 120.521 297.333 117.806 298.912 C 115.848 300.111 114.017 301.437 112.375 303.079 C 101.83 313.624 101.83 330.8 112.375 341.345 C 118.753 347.723 127.846 354.427 136.686 352.659 C 139.654 352.09 142.622 356.963 144.705 359.047 C 146.789 361.131 147.736 364.099 147.168 367.066 C 145.463 375.97 152.167 381.137 158.482 387.451 C 169.027 397.997 186.202 397.997 196.747 387.451 C 198.389 385.81 199.841 383.978 200.915 382.021 C 202.494 379.306 205.398 377.664 208.492 377.601 C 211.65 377.601 214.491 379.179 216.196 381.895 C 220.548 388.931 227.878 393.594 236.096 394.553 C 244.314 395.513 255.137 392.665 260.994 386.82 C 271.539 376.275 271.539 355.174 260.994 344.628 C 257.521 341.156 254.904 335.472 258.377 332 L 247.579 321.202 L 247.831 295.691 Z " fill="rgb(24,71,180)"/><path d=" M 250.231 171.296 L 182.477 153.237 L 155.261 186.198 L 208.492 239.492 Q 236.844 189.861 250.231 171.296 Z  M 300.684 228.884 C 282.119 242.397 272.647 284.452 258.44 290.198 L 316.028 351.259 L 346.716 318.865 L 336.992 249.027 C 336.866 249.027 325.541 228.821 325.352 228.884 L 300.684 228.884 Z  M 400.01 100.069 C 346.337 101.332 281.361 131.831 246.442 180.01 C 231.603 200.532 220.427 233.683 216.196 244.86 L 233.056 261.846 L 237.791 261.846 L 247.831 283.694 C 259.071 279.4 301.062 267.276 321.521 252.374 C 369.827 217.455 398.747 166.56 400.01 112.887 L 400.01 100.069 Z  M 321.521 180.01 C 309.587 168.076 304.093 161.866 316.028 149.932 C 327.962 137.997 341.159 134.104 353.094 146.038 C 365.028 157.973 365.028 168.076 353.094 180.01 C 341.159 191.945 333.456 191.945 321.521 180.01 Z " fill="rgb(18,53,135)"/><path d=" M 358.1 141.6 C 346.817 130.317 328.43 130.317 317.147 141.6 C 305.864 152.883 305.864 171.27 317.147 182.553 C 328.43 193.836 346.817 193.836 358.1 182.553 C 369.383 171.27 369.383 152.883 358.1 141.6 Z " fill="rgb(255,255,255)"/><path d=" M 258.44 344.692 C 268.985 355.237 268.985 372.412 258.44 382.957 C 252.583 388.802 244.377 391.65 236.159 390.691 C 227.941 389.731 220.612 385.069 216.259 378.032 C 214.617 375.38 211.713 373.738 208.555 373.738 C 205.398 373.738 202.557 375.443 200.978 378.158 C 199.778 380.116 198.452 381.947 196.811 383.589 C 186.265 394.134 169.09 394.134 158.545 383.589 C 152.167 377.211 149.389 368.118 151.157 359.278 C 151.725 356.31 150.778 353.342 148.694 351.259 C 146.61 349.175 143.579 348.291 140.675 348.796 C 131.845 350.561 122.719 347.787 116.364 341.408 C 105.819 330.863 105.819 313.688 116.364 303.142 C 118.006 301.501 119.837 300.048 121.795 298.975 C 124.51 297.396 126.152 294.492 126.215 291.397 C 126.215 288.24 124.699 285.336 121.921 283.694 C 120.09 282.62 118.448 281.231 116.996 279.779 C 106.45 269.234 106.45 252.058 116.996 241.513 C 127.541 230.968 144.716 230.968 155.261 241.513 C 158.734 244.986 164.417 244.986 167.89 241.513 C 171.363 238.04 171.363 232.357 167.89 228.884 C 150.328 211.392 121.929 211.392 104.367 228.884 C 87.254 245.996 86.876 273.527 103.167 291.082 C 86.244 308.636 86.37 336.672 103.735 354.037 C 111.628 361.93 121.984 366.477 132.845 367.108 C 133.476 377.969 138.023 388.325 145.916 396.218 C 163.218 413.519 191.317 413.709 208.871 396.786 C 226.425 413.077 254.02 412.635 271.069 395.586 C 288.561 378.024 288.561 349.625 271.069 332.063 C 267.596 328.59 261.913 328.59 258.44 332.063 C 254.967 335.536 254.967 341.219 258.44 344.692 L 258.44 344.692 Z  M 355.493 316.971 L 340.717 249.027 C 359.787 232.357 375.7 212.656 387.192 191.313 C 402.662 162.582 410.113 131.894 409.356 100.069 L 409.356 99.437 C 409.255 94.667 405.412 90.824 400.642 90.724 L 400.01 90.724 C 368.248 89.903 337.56 97.354 308.766 112.887 C 287.107 124.569 267.091 140.797 250.231 160.309 L 184.56 146.038 C 181.593 145.344 178.499 146.291 176.352 148.438 L 144.779 180.01 C 141.306 183.483 141.306 189.166 144.779 192.639 L 191.633 239.492 L 153.556 277.569 C 150.083 281.042 150.083 286.725 153.556 290.198 C 157.029 293.671 162.712 293.671 166.185 290.198 L 204.262 252.121 L 220.427 268.286 L 169.848 318.865 C 166.375 322.338 166.375 328.021 169.848 331.494 C 173.321 334.967 179.004 334.967 182.477 331.494 L 233.056 280.915 L 246.442 294.302 C 246.695 294.555 246.884 294.744 247.2 294.934 C 247.453 295.186 247.579 295.439 247.831 295.691 L 209.755 333.768 C 206.282 337.241 206.282 342.924 209.755 346.397 C 213.228 349.869 218.911 349.869 222.384 346.397 L 260.46 308.32 L 308.892 356.752 C 312.365 360.225 318.048 360.225 321.521 356.752 L 353.094 325.18 C 355.241 323.033 356.125 319.876 355.493 316.971 L 355.493 316.971 Z  M 185.444 164.35 L 237.791 175.779 C 224.468 194.281 214.238 217.013 208.492 231.094 L 163.596 186.198 L 185.444 164.35 Z  M 245.685 268.286 L 300.684 213.287 C 304.157 209.814 304.157 204.131 300.684 200.658 C 297.211 197.186 291.528 197.186 288.055 200.658 L 233.056 255.658 L 222.258 244.86 C 226.552 233.62 237.602 206.278 252.504 185.819 C 287.423 137.64 337.686 109.856 391.423 108.53 C 390.16 162.203 362.313 212.53 314.133 247.449 C 293.611 262.288 266.27 273.464 255.093 277.695 L 245.685 268.286 Z  M 315.207 337.809 L 268.859 291.461 C 283.066 285.714 306.051 275.359 324.615 261.846 C 324.742 261.719 324.994 261.593 325.121 261.467 L 336.992 315.898 L 315.207 337.809 L 315.207 337.809 Z  M 359.282 140.671 C 347.348 128.737 327.899 128.737 315.965 140.671 C 304.03 152.605 304.03 172.054 315.965 183.988 C 327.899 195.923 347.348 195.923 359.282 183.988 C 371.216 172.054 371.216 152.605 359.282 140.671 Z  M 328.657 171.296 C 325.431 168.07 324.171 163.368 325.352 158.961 C 326.532 154.555 329.975 151.113 334.381 149.932 C 338.788 148.751 343.49 150.011 346.716 153.237 C 351.703 158.224 351.703 166.309 346.716 171.296 C 341.729 176.283 333.644 176.283 328.657 171.296 L 328.657 171.296 Z " fill="rgb(45,48,51)"/></g></g></g></svg>