<?xml version="1.0" encoding="UTF-8" standalone="no"?><!-- Generator: Gravit.io --><svg xmlns="http://www.w3.org/2000/svg" xmlns:xlink="http://www.w3.org/1999/xlink" style="isolation:isolate" viewBox="0 0 500 500" width="500pt" height="500pt"><defs><clipPath id="_clipPath_VS207txJeN5Tu08lTksoyGnlML3FeFim"><rect width="500" height="500"/></clipPath></defs><g clip-path="url(#_clipPath_VS207txJeN5Tu08lTksoyGnlML3FeFim)"><circle vector-effect="non-scaling-stroke" cx="249.99999999999997" cy="249.99999999999986" r="250" fill="rgb(255,255,255)"/><g filter="url(#78gjmBTOWiLw1w0JxwVHpgmF2ihqv4Av)"><path d=" M 248.343 284.918 C 248.15 284.725 248.005 284.581 247.86 284.339 C 247.667 284.146 247.474 284.05 247.281 283.857 L 243.051 265.627 L 233.401 255.976 L 215.048 251.623 L 195.553 251.816 L 187.205 243.468 C 184.551 246.122 180.208 243.122 177.554 240.468 C 169.496 232.41 153.371 232.41 145.313 240.468 C 140.846 244.944 138.67 251.215 139.403 257.495 C 140.136 263.775 143.699 272.376 149.076 275.702 C 151.103 276.956 152.358 279.176 152.358 281.589 C 152.358 284.001 151.055 286.173 148.98 287.379 C 147.484 288.296 146.085 289.309 144.83 290.564 C 136.772 298.622 136.772 311.747 144.83 319.806 C 149.704 324.679 156.652 329.803 163.408 328.452 C 165.676 328.017 167.944 331.741 169.536 333.333 C 171.128 334.926 171.852 337.194 171.418 339.462 C 170.115 346.265 175.238 350.214 180.064 355.039 C 188.122 363.098 201.247 363.098 209.305 355.039 C 210.56 353.785 211.67 352.385 212.49 350.89 C 213.697 348.815 215.916 347.56 218.281 347.512 C 220.693 347.512 222.865 348.718 224.168 350.793 C 227.494 356.17 233.095 359.733 239.375 360.466 C 245.655 361.2 253.926 359.023 258.401 354.557 C 266.46 346.498 266.46 330.373 258.401 322.315 C 255.747 319.661 253.747 315.318 256.401 312.664 L 248.15 304.413 L 248.343 284.918 Z " fill="rgb(24,71,180)"/><path d=" M 250.176 189.858 L 198.4 176.058 L 177.603 201.246 L 218.281 241.972 Q 239.947 204.045 250.176 189.858 Z  M 288.731 233.866 C 274.545 244.192 267.307 276.329 256.449 280.72 L 300.457 327.382 L 323.908 302.627 L 316.477 249.259 C 316.381 249.259 307.727 233.817 307.582 233.866 L 288.731 233.866 Z  M 364.635 135.428 C 323.619 136.393 273.966 159.7 247.281 196.517 C 235.942 212.2 227.401 237.533 224.168 246.074 L 237.051 259.054 L 240.67 259.054 L 248.343 275.75 C 256.932 272.469 289.021 263.204 304.655 251.816 C 341.569 225.132 363.67 186.239 364.635 145.223 L 364.635 135.428 Z  M 304.655 196.517 C 295.535 187.397 291.337 182.652 300.457 173.532 C 309.577 164.412 319.662 161.437 328.782 170.557 C 337.902 179.677 337.902 187.397 328.782 196.517 C 319.662 205.637 313.775 205.637 304.655 196.517 Z " fill="rgb(18,53,135)"/></g><defs><filter id="78gjmBTOWiLw1w0JxwVHpgmF2ihqv4Av" x="-200%" y="-200%" width="400%" height="400%" filterUnits="objectBoundingBox" color-interpolation-filters="sRGB"><feGaussianBlur xmlns="http://www.w3.org/2000/svg" stdDeviation="39.93056428440296"/></filter></defs><g><path d=" M 248.343 284.918 C 248.15 284.725 248.005 284.581 247.86 284.339 C 247.667 284.146 247.474 284.05 247.281 283.857 L 243.051 265.627 L 233.401 255.976 L 215.048 251.623 L 195.553 251.816 L 187.205 243.468 C 184.551 246.122 180.208 243.122 177.554 240.468 C 169.496 232.41 153.371 232.41 145.313 240.468 C 140.846 244.944 138.67 251.215 139.403 257.495 C 140.136 263.775 143.699 272.376 149.076 275.702 C 151.103 276.956 152.358 279.176 152.358 281.589 C 152.358 284.001 151.055 286.173 148.98 287.379 C 147.484 288.296 146.085 289.309 144.83 290.564 C 136.772 298.622 136.772 311.747 144.83 319.806 C 149.704 324.679 156.652 329.803 163.408 328.452 C 165.676 328.017 167.944 331.741 169.536 333.333 C 171.128 334.926 171.852 337.194 171.418 339.462 C 170.115 346.265 175.238 350.214 180.064 355.039 C 188.122 363.098 201.247 363.098 209.305 355.039 C 210.56 353.785 211.67 352.385 212.49 350.89 C 213.697 348.815 215.916 347.56 218.281 347.512 C 220.693 347.512 222.865 348.718 224.168 350.793 C 227.494 356.17 233.095 359.733 239.375 360.466 C 245.655 361.2 253.926 359.023 258.401 354.557 C 266.46 346.498 266.46 330.373 258.401 322.315 C 255.747 319.661 253.747 315.318 256.401 312.664 L 248.15 304.413 L 248.343 284.918 Z " fill="rgb(24,71,180)"/><path d=" M 250.176 189.858 L 198.4 176.058 L 177.603 201.246 L 218.281 241.972 Q 239.947 204.045 250.176 189.858 Z  M 288.731 233.866 C 274.545 244.192 267.307 276.329 256.449 280.72 L 300.457 327.382 L 323.908 302.627 L 316.477 249.259 C 316.381 249.259 307.727 233.817 307.582 233.866 L 288.731 233.866 Z  M 364.635 135.428 C 323.619 136.393 273.966 159.7 247.281 196.517 C 235.942 212.2 227.401 237.533 224.168 246.074 L 237.051 259.054 L 240.67 259.054 L 248.343 275.75 C 256.932 272.469 289.021 263.204 304.655 251.816 C 341.569 225.132 363.67 186.239 364.635 145.223 L 364.635 135.428 Z  M 304.655 196.517 C 295.535 187.397 291.337 182.652 300.457 173.532 C 309.577 164.412 319.662 161.437 328.782 170.557 C 337.902 179.677 337.902 187.397 328.782 196.517 C 319.662 205.637 313.775 205.637 304.655 196.517 Z " fill="rgb(18,53,135)"/><path d=" M 332.608 167.165 C 323.985 158.543 309.934 158.543 301.312 167.165 C 292.69 175.787 292.69 189.838 301.312 198.461 C 309.934 207.083 323.985 207.083 332.608 198.461 C 341.23 189.838 341.23 175.787 332.608 167.165 Z " fill="rgb(255,255,255)"/><path d=" M 256.449 322.363 C 264.508 330.422 264.508 343.547 256.449 351.605 C 251.974 356.071 245.703 358.248 239.423 357.515 C 233.143 356.781 227.542 353.219 224.216 347.841 C 222.961 345.815 220.742 344.56 218.329 344.56 C 215.916 344.56 213.745 345.863 212.538 347.938 C 211.622 349.434 210.608 350.833 209.354 352.088 C 201.295 360.146 188.17 360.146 180.112 352.088 C 175.238 347.214 173.115 340.265 174.466 333.51 C 174.9 331.242 174.177 328.974 172.584 327.382 C 170.992 325.789 168.676 325.114 166.456 325.5 C 159.709 326.848 152.734 324.729 147.878 319.854 C 139.82 311.796 139.82 298.671 147.878 290.612 C 149.133 289.358 150.532 288.248 152.028 287.428 C 154.103 286.221 155.358 284.001 155.406 281.637 C 155.406 279.224 154.248 277.005 152.125 275.75 C 150.725 274.93 149.471 273.868 148.361 272.758 C 140.302 264.7 140.302 251.575 148.361 243.517 C 156.419 235.458 169.544 235.458 177.603 243.517 C 180.257 246.17 184.6 246.17 187.253 243.517 C 189.907 240.863 189.907 236.52 187.253 233.866 C 173.833 220.498 152.131 220.498 138.71 233.866 C 125.633 246.943 125.344 267.981 137.793 281.396 C 124.861 294.81 124.958 316.235 138.228 329.505 C 144.259 335.537 152.173 339.011 160.473 339.493 C 160.955 347.793 164.429 355.707 170.461 361.738 C 183.683 374.96 205.156 375.105 218.57 362.173 C 231.985 374.622 253.072 374.284 266.1 361.256 C 279.468 347.835 279.468 326.133 266.1 312.713 C 263.446 310.059 259.103 310.059 256.449 312.713 C 253.796 315.366 253.796 319.709 256.449 322.363 L 256.449 322.363 Z  M 330.616 301.18 L 319.324 249.259 C 333.897 236.52 346.057 221.465 354.839 205.155 C 366.661 183.199 372.355 159.748 371.776 135.428 L 371.776 134.945 C 371.699 131.3 368.763 128.363 365.117 128.286 L 364.635 128.286 C 340.363 127.659 316.912 133.353 294.908 145.223 C 278.357 154.15 263.06 166.552 250.176 181.462 L 199.992 170.557 C 197.725 170.026 195.36 170.75 193.719 172.39 L 169.593 196.517 C 166.939 199.171 166.939 203.514 169.593 206.168 L 205.397 241.972 L 176.3 271.069 C 173.646 273.723 173.646 278.066 176.3 280.72 C 178.954 283.374 183.297 283.374 185.951 280.72 L 215.048 251.623 L 227.401 263.976 L 188.749 302.627 C 186.095 305.281 186.095 309.624 188.749 312.278 C 191.403 314.932 195.746 314.932 198.4 312.278 L 237.051 273.627 L 247.281 283.857 C 247.474 284.05 247.619 284.195 247.86 284.339 C 248.053 284.532 248.15 284.725 248.343 284.918 L 219.246 314.015 C 216.592 316.669 216.592 321.012 219.246 323.666 C 221.9 326.32 226.243 326.32 228.897 323.666 L 257.994 294.569 L 295.004 331.58 C 297.658 334.234 302.001 334.234 304.655 331.58 L 328.782 307.453 C 330.423 305.812 331.098 303.4 330.616 301.18 L 330.616 301.18 Z  M 200.668 184.55 L 240.67 193.284 C 230.489 207.423 222.672 224.794 218.281 235.555 L 183.972 201.246 L 200.668 184.55 Z  M 246.702 263.976 L 288.731 221.947 C 291.385 219.293 291.385 214.95 288.731 212.296 C 286.077 209.642 281.735 209.642 279.081 212.296 L 237.051 254.325 L 228.8 246.074 C 232.081 237.485 240.526 216.591 251.914 200.957 C 278.598 164.139 317.008 142.907 358.072 141.894 C 357.107 182.91 335.827 221.368 299.009 248.052 C 283.327 259.392 262.433 267.933 253.892 271.166 L 246.702 263.976 Z  M 299.83 317.104 L 264.411 281.685 C 275.268 277.294 292.833 269.381 307.02 259.054 C 307.116 258.958 307.309 258.861 307.406 258.765 L 316.477 300.36 L 299.83 317.104 L 299.83 317.104 Z  M 333.511 166.455 C 324.391 157.335 309.529 157.335 300.409 166.455 C 291.289 175.575 291.289 190.437 300.409 199.557 C 309.529 208.677 324.391 208.677 333.511 199.557 C 342.631 190.437 342.631 175.575 333.511 166.455 Z  M 310.108 189.858 C 307.643 187.393 306.68 183.8 307.582 180.432 C 308.484 177.065 311.115 174.434 314.482 173.532 C 317.85 172.63 321.443 173.592 323.908 176.058 C 327.719 179.869 327.719 186.047 323.908 189.858 C 320.097 193.669 313.919 193.669 310.108 189.858 L 310.108 189.858 Z " fill="rgb(45,48,51)"/></g></g></svg>